<?xml version="1.0" standalone="no"?>
<!DOCTYPE svg PUBLIC "-//W3C//DTD SVG 20010904//EN"
 "http://www.w3.org/TR/2001/REC-SVG-20010904/DTD/svg10.dtd">
<svg version="1.0" xmlns="http://www.w3.org/2000/svg"
 width="1320.000000pt" height="1000.000000pt" viewBox="0 0 1320.000000 1000.000000"
 preserveAspectRatio="xMidYMid meet">

<g transform="translate(0.000000,1000.000000) scale(0.100000,-0.100000)"
fill="#000000" stroke="none">
<path d="M0 5000 l0 -5000 6600 0 6600 0 0 5000 0 5000 -6600 0 -6600 0 0
-5000z m2968 443 l3 -93 69 0 70 0 80 -160 80 -160 44 0 c80 0 76 10 76 -196
l0 -184 -48 0 c-46 0 -49 2 -60 35 -16 43 -61 81 -112 95 -73 20 -146 -15
-180 -85 l-22 -45 -169 0 c-165 0 -169 0 -169 21 0 32 -69 95 -118 108 -60 17
-111 1 -156 -49 -20 -22 -36 -49 -36 -60 0 -17 -7 -20 -49 -20 -35 0 -51 4
-55 16 -8 21 -8 838 0 858 6 15 45 16 378 14 l371 -3 3 -92z m4307 -48 c30
-29 31 -45 7 -75 -20 -25 -63 -30 -87 -10 -25 21 -16 82 15 97 34 17 37 17 65
-12z m-645 -150 c0 -85 3 -155 6 -155 3 0 15 11 25 24 32 41 123 79 188 79 66
0 106 -18 149 -67 48 -55 56 -99 56 -316 l1 -195 -37 -3 -38 -3 0 198 c0 173
-3 203 -19 240 -24 52 -68 77 -137 77 -71 0 -123 -35 -158 -106 -23 -48 -26
-68 -32 -230 l-7 -178 -33 0 -34 0 0 395 0 395 35 0 35 0 0 -155z m-2390 118
c19 -7 46 -24 59 -36 55 -50 77 -159 47 -230 -18 -44 -77 -94 -128 -108 -24
-7 -47 -16 -51 -19 -5 -4 39 -85 97 -179 58 -95 106 -174 106 -177 0 -3 -21
-4 -47 -2 l-47 3 -109 178 -109 177 -49 0 -49 0 -2 -177 -3 -178 -37 -3 -38
-3 0 392 0 391 163 -7 c102 -5 175 -12 197 -22z m3855 -3 c111 -55 135 -202
48 -289 -19 -19 -31 -37 -27 -38 91 -32 149 -120 141 -215 -8 -88 -71 -164
-157 -188 -19 -5 -115 -10 -212 -10 l-178 0 0 386 0 386 168 -4 c153 -3 171
-5 217 -28z m-3212 -166 c63 -21 130 -83 164 -152 27 -55 28 -62 31 -244 l4
-188 -41 0 -41 0 0 61 0 61 -25 -31 c-65 -77 -217 -107 -316 -64 -191 85 -232
355 -75 502 65 62 205 87 299 55z m1431 -18 c48 -23 118 -90 105 -100 -47 -36
-50 -36 -92 -1 -97 83 -241 87 -327 9 -102 -92 -108 -235 -15 -329 92 -91 242
-96 342 -10 41 35 43 36 68 19 14 -9 25 -19 25 -23 0 -4 -15 -21 -32 -39 -87
-84 -257 -112 -368 -60 -167 77 -227 276 -129 429 82 128 277 176 423 105z
m2448 14 c61 -23 124 -82 159 -150 22 -42 24 -58 27 -237 l4 -193 -41 0 -41 0
0 57 0 57 -32 -32 c-72 -69 -211 -97 -299 -59 -53 22 -117 83 -147 141 -23 44
-27 63 -27 141 0 74 4 97 23 132 72 135 232 196 374 143z m1183 -7 c55 -29
113 -89 139 -143 19 -40 21 -66 24 -238 l4 -193 -39 3 -38 3 -5 53 -5 54 -29
-31 c-62 -65 -182 -91 -285 -62 -63 18 -141 99 -170 176 -29 75 -26 178 7 241
27 53 111 128 165 148 59 22 179 16 232 -11z m689 6 c69 -25 136 -97 165 -175
18 -48 21 -78 21 -229 l0 -175 -40 0 -40 0 0 60 0 61 -30 -34 c-66 -75 -213
-103 -310 -60 -149 67 -215 261 -139 411 68 136 226 196 373 141z m-5041 -14
c46 -19 92 -75 108 -133 8 -29 13 -114 13 -236 l1 -191 -37 -3 -37 -3 -3 208
c-3 179 -6 213 -21 236 -31 47 -64 62 -142 62 -59 0 -77 -4 -107 -24 -19 -14
-40 -33 -47 -42 -16 -27 -31 -177 -31 -316 l0 -123 -35 0 -35 0 0 188 c0 139
4 202 15 239 16 53 58 103 108 130 67 34 178 38 250 8z m5608 15 c18 -10 18
-13 4 -40 -12 -23 -22 -30 -45 -30 -37 0 -93 -48 -123 -104 -19 -36 -22 -62
-27 -221 l-5 -180 -38 -3 -39 -3 4 188 c3 172 5 192 27 240 49 109 175 188
242 153z m-1741 -5 c0 -3 -70 -116 -155 -251 -85 -135 -155 -247 -155 -250 0
-2 68 -4 150 -4 l150 0 0 -35 0 -35 -215 0 c-118 0 -215 4 -215 8 0 5 69 119
154 253 l155 244 -142 5 -142 5 -3 33 -3 32 210 0 c116 0 211 -2 211 -5z
m-2190 -290 l0 -285 -35 0 -35 0 0 285 0 285 35 0 35 0 0 -285z m-5105 105 c0
-12 -17 -16 -84 -18 -83 -3 -110 5 -96 28 4 7 37 10 93 8 69 -2 87 -6 87 -18z
m0 -80 c14 -23 -17 -40 -71 -40 -54 0 -70 10 -60 35 6 18 121 21 131 5z m-5
-95 c18 -22 3 -35 -40 -35 -40 0 -58 18 -37 39 16 16 62 14 77 -4z m8 -106 c4
-19 -19 -31 -38 -19 -18 11 -4 42 17 38 10 -2 19 -10 21 -19z m370 5 c31 -21
52 -66 52 -110 0 -28 -8 -44 -34 -70 -29 -29 -40 -34 -82 -34 -27 0 -56 6 -64
13 -72 56 -63 176 14 207 34 14 90 11 114 -6z m660 0 c31 -21 52 -66 52 -110
0 -28 -8 -44 -34 -70 -30 -30 -41 -34 -84 -34 -38 0 -55 5 -75 24 -29 27 -48
84 -40 118 7 28 41 67 68 78 33 14 89 11 113 -6z"/>
<path d="M2260 5165 l0 -325 330 0 330 0 0 325 0 325 -330 0 -330 0 0 -325z"/>
<path d="M2970 5070 l0 -230 185 0 185 0 0 70 0 70 -50 0 -50 0 -80 160 -80
160 -55 0 -55 0 0 -230z"/>
<path d="M3960 5180 l0 -130 108 0 c82 0 115 4 142 18 74 36 90 137 32 195
-35 35 -83 46 -199 47 l-83 0 0 -130z"/>
<path d="M7780 5190 l0 -120 118 0 c127 0 163 12 197 64 25 37 22 102 -6 132
-32 34 -78 44 -201 44 l-108 0 0 -120z"/>
<path d="M7785 4979 c-3 -8 -4 -76 -3 -150 l3 -134 141 1 c168 1 195 11 233
87 21 42 22 53 13 86 -14 44 -54 84 -102 100 -19 7 -90 15 -157 18 -102 5
-123 4 -128 -8z"/>
<path d="M4723 5131 c-47 -12 -99 -55 -130 -109 -23 -39 -28 -58 -27 -113 0
-83 32 -143 101 -189 44 -29 54 -31 110 -28 82 5 133 40 180 123 32 56 34 65
29 125 -4 49 -12 75 -34 105 -49 70 -147 107 -229 86z"/>
<path d="M8596 5130 c-90 -27 -158 -121 -158 -218 0 -69 20 -117 64 -158 116
-110 260 -77 338 77 20 39 25 100 13 160 -10 50 -87 123 -145 137 -53 14 -71
14 -112 2z"/>
<path d="M9747 5126 c-154 -55 -199 -267 -80 -377 110 -103 259 -68 332 78 23
46 27 115 11 175 -14 49 -86 112 -145 127 -55 14 -71 13 -118 -3z"/>
<path d="M10468 5131 c-113 -37 -182 -152 -158 -264 6 -28 19 -65 30 -82 29
-47 96 -88 153 -93 93 -9 167 39 217 142 32 67 24 163 -18 215 -53 67 -156
104 -224 82z"/>
</g>
</svg>
